#!OML:ASF Y:\EmotionMaleHayes\Project 1\Capture day 1\Session 1\Male1.ASF
:FULLY-SPECIFIED
:DEGREES
1689
root 44.0017 16.6362 12.2006 903.117 28.4903 902.841
lowerback 6.94692 2.12458 10.0506
upperback 3.56714 3.96378 4.53653
thorax 0.156487 2.27722 -1.15107
lowerneck -31.0549 5.58295 7.37418
upperneck 21.5909 6.69719 -7.56361
head 12.8332 2.53275 -2.81934
rclavicle 3.65764e-014 -1.27222e-014
rhumerus 49.0298 8.35991 -35.9377
rradius 37.1473
rwrist -0.977976
rhand -8.96671 -29.8713
rfingers 7.12502
rthumb 16.9785 -59.1492
lclavicle 3.65764e-014 -1.27222e-014
lhumerus 36.5758 -4.7006 23.542
lradius 38.1239
lwrist 5.39023
lhand -17.8655 -25.4048
lfingers 7.12502
lthumb 8.40017 4.40819
rfemur 25.6109 -4.8182 7.82615
rtibia 0.944219
rfoot -18.3793 -27.5443
rtoes -8.26996
lfemur -23.3749 14.8571 -14.4761
ltibia 25.8332
lfoot -5.15584 10.4908
ltoes -1.34878
1690
root 44.0146 16.588 12.0753 903.178 28.252 903.087
lowerback 6.95968 2.18004 10.1463
upperback 3.4893 4.02103 4.25441
thorax 0.102767 2.29366 -1.50147
lowerneck -30.8361 5.61628 7.73955
upperneck 21.0802 6.5765 -7.66689
head 12.5963 2.50164 -2.93784
rclavicle 1.86858e-014 1.06549e-013
rhumerus 48.835 8.30413 -36.5021
rradius 37.168
rwrist -0.535486
rhand -8.94894 -29.7259
rfingers 7.12502
rthumb 16.9956 -59.0024
lclavicle 1.86858e-014 1.06549e-013
lhumerus 36.7299 -4.60542 23.2847
lradius 38.1011
lwrist 5.3082
lhand -18.0394 -25.5793
lfingers 7.12502
lthumb 8.23226 4.24035
rfemur 26.0019 -4.95405 7.67079
rtibia 1.34969
rfoot -17.5234 -27.3036
rtoes -10.2827
lfemur -24.136 14.4874 -14.6806
ltibia 27.8198
lfoot -5.34394 10.5999
ltoes -9.13482
1691
root 44.0291 16.549 11.9531 903.148 28.1196 903.231
lowerback 6.91455 2.25102 10.0651
upperback 3.58223 4.07706 4.01781
thorax 0.243928 2.32456 -1.6979
lowerneck -30.9226 5.66984 7.7743
upperneck 20.6143 6.5603 -7.5814
head 12.4219 2.50724 -2.90604
rclavicle -3.18055e-014 1.27222e-014
rhumerus 48.7964 8.29162 -36.7181
rradius 37.4229
rwrist -0.692079
rhand -9.22353 -29.9185
rfingers 7.12502
rthumb 16.7313 -59.2175
lclavicle -3.18055e-014 1.27222e-014
lhumerus 36.9214 -4.18135 23.3836
lradius 37.977
lwrist 5.13628
lhand -18.4018 -25.5672
lfingers 7.12502
lthumb 7.88255 4.26587
rfemur 26.3985 -4.52403 7.7084
rtibia 1.63737
rfoot -17.8482 -27.1692
rtoes -7.68035
lfemur -24.6238 13.3158 -14.5867
ltibia 29.5682
lfoot -6.67858 11.4815
ltoes -5.3647
1692
root 44.0418 16.5222 11.8319 903.054 28.0566 903.225
lowerback 6.94628 2.33221 9.62003
upperback 3.6452 4.14553 3.92757
thorax 0.27291 2.3522 -1.55228
lowerneck -31.0905 5.72546 7.71026
upperneck 20.4049 6.651 -7.62615
head 12.3767 2.53353 -2.89066
rclavicle 3.69739e-014 1.44715e-013
rhumerus 48.8387 8.43852 -36.7494
rradius 37.6787
rwrist -1.03537
rhand -9.59897 -29.9763
rfingers 7.12502
rthumb 16.3698 -59.3055
lclavicle 3.69739e-014 1.44715e-013
lhumerus 36.8457 -3.7975 23.8282
lradius 37.945
lwrist 5.07966
lhand -18.8413 -25.5095
lfingers 7.12502
lthumb 7.45836 4.33902
rfemur 26.6173 -4.24685 7.43214
rtibia 2.16422
rfoot -17.4913 -26.9554
rtoes -6.39366
lfemur -24.978 12.4224 -14.6583
ltibia 31.0428
lfoot -7.79808 12.0276
ltoes -3.10463
1693
root 44.0543 16.5099 11.7114 902.994 27.9401 903.273
lowerback 7.11087 2.40566 9.26251
upperback 3.59061 4.23069 3.82677
thorax 0.113477 2.37702 -1.4792
lowerneck -30.7155 5.80733 7.97722
upperneck 19.6738 6.8473 -8.3729
head 12.0889 2.5593 -3.17421
rclavicle 8.74653e-015 -2.8625e-014
rhumerus 48.7629 8.38361 -37.1797
rradius 37.5957
rwrist -0.420585
rhand -8.97422 -29.0563
rfingers 7.12502
rthumb 16.9713 -58.3349
lclavicle 8.74653e-015 -2.8625e-014
lhumerus 36.7213 -3.71564 24.1372
lradius 38.0663
lwrist 5.43397
lhand -19.132 -25.4348
lfingers 7.12502
lthumb 7.17771 4.42343
rfemur 26.6885 -4.26425 7.07048
rtibia 2.91328
rfoot -16.2303 -26.643
rtoes -7.89376
lfemur -25.1567 11.6108 -14.6843
ltibia 32.2391
lfoot -8.93904 12.2478
ltoes -1.1853
1694
root 44.0673 16.5081 11.591 903.008 27.768 903.492
lowerback 7.232 2.48485 9.15403
upperback 3.57168 4.33429 3.7055
thorax 0.0377087 2.42084 -1.5592
lowerneck -30.985 5.76594 7.57069
upperneck 19.6857 6.81205 -7.90297
head 12.0987 2.56687 -2.93268
rclavicle 6.75868e-015 -3.49861e-014
rhumerus 48.583 8.60085 -37.0991
rradius 37.7773
rwrist -1.19794
rhand -9.53873 -29.2596
rfingers 7.12502
rthumb 16.4278 -58.584
lclavicle 6.75868e-015 -3.49861e-014
lhumerus 36.7314 -3.6691 24.4159
lradius 38.1578
lwrist 6.15969
lhand -19.3398 -25.5723
lfingers 7.12502
lthumb 6.97716 4.29275
rfemur 26.7537 -4.14977 7.03573
rtibia 3.64655
rfoot -15.0088 -26.3931
rtoes -8.80845
lfemur -25.1323 10.9602 -14.5284
ltibia 33.2064
lfoot -10.2419 12.2139
ltoes 1.20921
